inDegrees=no
num_controls=7
num_derivatives=13
num_iterations=111
num_multipliers=7
num_parameters=0
num_slacks=7
num_states=26
objective=0.477173
objective_accelerations=0.044785
objective_balance=0.003743
objective_effort=0.040994
objective_height=0.381982
objective_ligament=0.005669
solver_duration=1544.079886
status=Solve_Succeeded
success=true
DataType=double
version=3
OpenSimVersion=4.5
endheader
time	/jointset/ground_pelvis/pelvis_tilt/value	/jointset/ground_pelvis/pelvis_tx/value	/jointset/ground_pelvis/pelvis_ty/value	/jointset/hip_l/hip_flexion_l/value	/jointset/hip_l/hip_adduction_l/value	/jointset/hip_l/hip_rotation_l/value	/jointset/back/lumbar_extension/value	/jointset/patellofemoral_l/patellar_flexion_l/value	/jointset/knee_l/knee_flexion_l/value	/jointset/knee_l/knee_adduction_l/value	/jointset/knee_l/knee_rotation_l/value	/jointset/ankle_l/ankle_angle_l/value	/jointset/subtalar_l/subtalar_angle_l/value	/jointset/ground_pelvis/pelvis_tilt/speed	/jointset/ground_pelvis/pelvis_tx/speed	/jointset/ground_pelvis/pelvis_ty/speed	/jointset/hip_l/hip_flexion_l/speed	/jointset/hip_l/hip_adduction_l/speed	/jointset/hip_l/hip_rotation_l/speed	/jointset/back/lumbar_extension/speed	/jointset/patellofemoral_l/patellar_flexion_l/speed	/jointset/knee_l/knee_flexion_l/speed	/jointset/knee_l/knee_adduction_l/speed	/jointset/knee_l/knee_rotation_l/speed	/jointset/ankle_l/ankle_angle_l/speed	/jointset/subtalar_l/subtalar_angle_l/speed	/forceset/tau_hip_flexion_l	/forceset/tau_hip_adduction_l	/forceset/tau_hip_rotation_l	/forceset/tau_knee_flexion_l	/forceset/tau_ankle_angle_l	/forceset/tau_subtalar_angle_l	/forceset/tau_lumbar_extension	lambda_cid13_p0	lambda_cid13_p1	lambda_cid13_p2	lambda_cid13_p3	lambda_cid13_p4	lambda_cid13_p5	lambda_cid14_p0	/jointset/ground_pelvis/pelvis_tilt/accel	/jointset/ground_pelvis/pelvis_tx/accel	/jointset/ground_pelvis/pelvis_ty/accel	/jointset/hip_l/hip_flexion_l/accel	/jointset/hip_l/hip_adduction_l/accel	/jointset/hip_l/hip_rotation_l/accel	/jointset/back/lumbar_extension/accel	/jointset/patellofemoral_l/patellar_flexion_l/accel	/jointset/knee_l/knee_flexion_l/accel	/jointset/knee_l/knee_adduction_l/accel	/jointset/knee_l/knee_rotation_l/accel	/jointset/ankle_l/ankle_angle_l/accel	/jointset/subtalar_l/subtalar_angle_l/accel	gamma_cid13_p0	gamma_cid13_p1	gamma_cid13_p2	gamma_cid13_p3	gamma_cid13_p4	gamma_cid13_p5	gamma_cid14_p0
0	-0.03654150791445324	0.05655475793789443	0.9203470370313775	0.3085816938045678	-0.2955563265910595	-0.2998594086004271	-0.3879492264334186	0.2499269421184878	0.2499269421184919	-0.1745220209392528	-0.1728158244680421	-0.0008036623358878681	0.0005023825534744085	0	0	0	0	0	0	0	0	0	0	0	0	0	0.07211816281101148	-0.04106208684851231	-0.01928479396085356	-0.2398203594952676	0.1839673428725164	-0.01868560599046068	0.001488714845161339	15.51574991874607	2.795717707802147	2.072940182307447	12.93267591190828	-620.7122679448125	-69.18652649343136	-23.13879337283146	-1.074196321061589	-2.119647110643791	-0.9424748502570282	9.521543883638584	-0.8127434131289404	3.281571423075191	-7.377671910678484	9.460454345417622	9.460454345418727	1.341070328860631	-0.1321985365154868	1.545449577205339	-0.3480635205314974	9.8633916344138e-10	1.50743158099515e-07	5.413405517289445e-08	-7.796524857062513e-09	1.117173244112941e-07	8.427923250367749e-09	4.951090102387011e-09
0.01	-0.03659126233273255	0.05645031652705119	0.9203009433397816	0.3090458231211475	-0.2955972022944679	-0.2996946881456409	-0.3883167170096042	0.2503906763779684	0.250390676377973	-0.174458763108451	-0.1728190705820058	-0.0007283326682611263	0.000484052274883164	-0.00989338346732966	-0.02075301882460999	-0.009183362347467989	0.09234357382510942	-0.008138512460236426	0.03279474081678455	-0.07299554073487495	0.09232838621643309	0.09232838621643263	0.01257774712567666	-0.0006423504638136979	0.0150493087857911	-0.003632554255324478	0.0663275512393665	-0.05004208993391376	-0.01851128194213979	-0.2352508130517581	0.1761365520146271	-0.006509618200626713	0.007001892475854913	13.35073983810754	-2.048373621482489	2.771132291060376	12.5402071675037	-623.4246743887867	-78.87940162463812	-23.14424276979918	-0.9382920689412102	-2.032841325798858	-0.9009381877597716	9.018415008269749	-0.8089433874765479	3.256022358932241	-7.185108979735366	9.056259917485106	9.056259917484514	1.20508533906606	-0.02921827137787306	1.482181657588502	-0.3658564622286756	-2.626277701487364e-08	1.527931725131712e-07	1.378691433366434e-07	1.56809540723195e-08	1.252560271429914e-08	-4.12177544567343e-08	-4.553971927784866e-09
0.02	-0.03673822712755574	0.05614240251647629	0.9201640817725574	0.3104189183512475	-0.2957183707674795	-0.2992065008930969	-0.389399085758106	0.2517651403311622	0.2517651403311619	-0.1742719361194751	-0.1728285331946161	-0.0005030078871118463	0.0004303954368995298	-0.01944207530957783	-0.04069451994632988	-0.01815357512566065	0.1817931827031232	-0.01605855392069354	0.06469335955165591	-0.1429756344634998	0.1821459387420239	0.1821459387420239	0.02471383163714793	-0.001243299730169379	0.02999902270448485	-0.007065311878478276	0.06053693966773515	-0.05902209301931948	-0.01773776992344298	-0.2306812666082401	0.1683057611567371	0.005666369589202823	0.01251507010655988	11.25882406433781	-6.903858801396724	3.469536433808108	12.0420010705416	-625.0382979441745	-88.48231827818556	-23.16026850779718	-1.00525799604539	-1.957343570065674	-0.899844936401959	8.942750894219438	-0.769049213173077	3.102347006692561	-6.774582509428527	8.958287607249147	8.95828760725044	1.252737806019552	-0.1239182970238673	1.525530603785977	-0.308104194097323	-5.351189319318867e-08	1.548431869268275e-07	2.216042315003923e-07	3.915843300170151e-08	-8.666611898269578e-08	-9.086343216383635e-08	-1.405903395795674e-08
0.03	-0.03697920140476819	0.05563973661666765	0.9199384502943844	0.3126715087587731	-0.2959172692600329	-0.2984043769198717	-0.3911646381556431	0.2540249324050381	0.2540249324050379	-0.1739655437307394	-0.1728440071112105	-0.0001280685983765711	0.0003440107891309971	-0.02869341607062097	-0.05964290330398508	-0.02694618247557893	0.2681565180999385	-0.02365563916283762	0.09556469271019685	-0.2095086847049017	0.2693602325838906	0.269360232583895	0.03651200506698752	-0.001830682242826494	0.04503586726812938	-0.01012694863010096	0.05421011190781339	-0.0530775722838815	-0.01724391477092829	-0.2276153392877813	0.1684525811128084	0.002931149534802504	0.01883856279948425	11.14059112462451	-5.738709595084323	3.333420024738826	10.42961161400287	-627.2888361493648	-85.17617122858034	-23.18618491435331	-0.8761752557527202	-1.834214285092728	-0.8650056632759906	8.397857714653462	-0.745264710952567	3.054488101799221	-6.498742230792695	8.53516660545816	8.535166605458022	1.135508713419414	-0.02299427743306768	1.499818078496417	-0.2925431430103947	-7.867360934969574e-08	1.379788967700006e-07	2.717369619193592e-07	6.6945186353333e-08	-2.025221573820672e-07	-1.292470301255213e-07	-2.040307643040989e-08
0.04	-0.0373109097175122	0.05495346116998732	0.9196256853369142	0.3157706790907137	-0.2961901839112513	-0.297298547288788	-0.393576736245454	0.2571433006838906	0.2571433006838894	-0.173542739287316	-0.1728647240627446	0.0003986504751637445	0.0002295398283831132	-0.03758888241643425	-0.07741642932067083	-0.03558027098509939	0.351109167586389	-0.03086178565368222	0.1254344911233118	-0.2722847729181852	0.3538611797378651	0.3538611797378675	0.04799624257495807	-0.002291906717339923	0.06035497966548523	-0.01268257447434837	0.04788328414786502	-0.0471330515484377	-0.01675005961840044	-0.2245494119673404	0.1685994010688759	0.0001959294804066854	0.02516205549238958	11.08984057104038	-4.582461072829383	3.195392850488653	8.707765682178696	-628.5402771562963	-81.78216256212616	-23.22107243205387	-0.9340831129995127	-1.722372101871693	-0.8681411683223905	8.260613712146473	-0.6908614629131876	2.902040057607374	-6.023190103804905	8.415618269670675	8.415618269670702	1.189950621645726	-0.09868668939511489	1.581984170528346	-0.2069020126222374	-1.037922863304955e-07	1.207246209519266e-07	3.211768602198772e-07	9.482079072397994e-08	-3.187217899402506e-07	-1.673984202574039e-07	-2.668194324187914e-08
